<svg width="140" height="58" viewBox="0 0 140 58" fill="none" xmlns="http://www.w3.org/2000/svg">
<path d="M44.8745 26.7647H44.7892C43.5095 28.7314 41.9738 29.5865 39.585 29.5865C35.234 29.5865 31.3096 25.9951 31.3096 20.0948C31.3096 14.1091 35.0634 10.6031 39.585 10.6031C41.8032 10.6031 43.5095 11.4583 44.7039 13.083H44.7892V11.0307H50.8465V29.0735H44.8745V26.7647ZM44.7039 20.0948C44.7039 17.615 43.0829 15.9903 40.95 15.9903C38.8172 15.9903 37.1962 17.615 37.1962 20.0948C37.1962 22.4891 38.8172 24.1993 40.95 24.1993C43.1682 24.1993 44.7039 22.4891 44.7039 20.0948Z" fill="#085DA8"/>
<path d="M54.4292 11.0308H60.4012V14.2802H60.5718C61.6809 12.1424 63.4725 11.0308 66.1172 11.0308V16.8455C62.534 16.8455 60.5718 18.0426 60.5718 22.4037V29.159H54.5145V11.0308H54.4292Z" fill="#085DA8"/>
<path d="M91.6264 26.7647H91.5411C90.2614 28.7314 88.7258 29.5865 86.337 29.5865C81.986 29.5865 78.0615 25.9951 78.0615 20.0948C78.0615 14.1091 81.8153 10.6031 86.337 10.6031C88.5551 10.6031 90.2614 11.4583 91.4558 13.083H91.5411V11.0307H97.5984V29.0735H91.6264V26.7647ZM91.5411 20.0948C91.5411 17.615 89.9202 15.9903 87.7873 15.9903C85.6545 15.9903 84.0335 17.615 84.0335 20.0948C84.0335 22.4891 85.6545 24.1993 87.7873 24.1993C90.0055 24.1993 91.5411 22.4891 91.5411 20.0948Z" fill="#085DA8"/>
<path d="M101.267 11.0307H107.239V13.083H107.41C108.519 11.3727 110.14 10.6031 112.699 10.6031C117.05 10.6031 119.609 13.425 119.609 17.8716V29.159H113.467V20.1803C113.467 17.8716 112.614 15.9903 110.396 15.9903C108.348 15.9903 107.239 17.615 107.239 20.5224V29.159H101.182V11.0307H101.267Z" fill="#085DA8"/>
<path d="M128.141 21.292C128.568 23.4298 129.848 24.5414 131.639 24.5414C133.09 24.5414 134.284 23.6863 134.796 22.4036L139.573 24.1993C138.806 26.9357 135.905 29.672 131.469 29.672C125.753 29.672 122.169 25.9951 122.169 20.0948C122.169 14.6222 125.753 10.6031 131.298 10.6031C137.014 10.6031 140 14.7077 140 19.6673C140 20.1803 140 20.8644 139.829 21.292H128.141ZM128.141 18.1281H133.943C133.857 16.5889 132.748 15.3917 131.127 15.3917C129.677 15.3917 128.568 16.4179 128.141 18.1281Z" fill="#085DA8"/>
<path d="M69.0181 6.49861C69.0181 4.7884 70.3831 3.33472 72.1747 3.33472C73.881 3.33472 75.3313 4.7884 75.3313 6.49861C75.3313 8.20883 73.9663 9.66251 72.1747 9.66251C70.3831 9.66251 69.0181 8.29434 69.0181 6.49861Z" fill="#085DA8"/>
<path d="M69.1033 29.2446C69.1033 30.5273 69.1033 31.9809 66.9705 31.9809H66.2026V35.9999H67.653C74.3075 35.9999 75.1606 33.1781 75.1606 29.0736V11.1163H69.1033V29.2446Z" fill="#085DA8"/>
<path d="M21.0714 6.75534C21.0714 10.5178 18.0854 13.5107 14.3316 13.5107C10.5778 13.5107 7.5918 10.5178 7.5918 6.75534C7.5918 2.99287 10.5778 0 14.3316 0C18.0854 0 21.0714 2.99287 21.0714 6.75534Z" fill="#FFE800"/>
<path d="M22.7788 10.6031C21.3285 13.8526 18.0866 16.0758 14.3327 16.0758C10.7496 16.0758 7.59294 14.0236 6.05729 11.0307H0V29.159H6.14261V20.0093C6.14261 18.6412 7.25169 17.444 8.70203 17.444C10.1524 17.444 11.2614 18.5556 11.2614 20.0093V29.159H17.5747V20.0093C17.5747 18.6412 18.6838 17.444 20.1341 17.444C21.4991 17.444 22.6935 18.5556 22.6935 20.0093V29.159H28.8361V17.786C28.6655 13.767 26.5326 10.9452 22.7788 10.6031Z" fill="#085DA8"/>
<path d="M59.114 51.696C59.384 52.044 59.678 52.29 59.996 52.434C60.32 52.572 60.677 52.641 61.067 52.641C61.823 52.641 62.411 52.365 62.831 51.813C63.257 51.261 63.47 50.439 63.47 49.347C63.47 48.783 63.422 48.303 63.326 47.907C63.23 47.505 63.092 47.178 62.912 46.926C62.732 46.674 62.513 46.491 62.255 46.377C61.997 46.263 61.706 46.206 61.382 46.206C60.89 46.206 60.464 46.314 60.104 46.53C59.75 46.74 59.42 47.043 59.114 47.439V51.696ZM59.015 46.152C59.399 45.702 59.834 45.339 60.32 45.063C60.812 44.787 61.382 44.649 62.03 44.649C62.546 44.649 63.014 44.754 63.434 44.964C63.854 45.168 64.214 45.468 64.514 45.864C64.814 46.26 65.045 46.752 65.207 47.34C65.375 47.922 65.459 48.591 65.459 49.347C65.459 50.025 65.366 50.658 65.18 51.246C65 51.828 64.739 52.335 64.397 52.767C64.055 53.193 63.641 53.529 63.155 53.775C62.669 54.015 62.12 54.135 61.508 54.135C60.968 54.135 60.509 54.048 60.131 53.874C59.759 53.7 59.42 53.46 59.114 53.154V57.051H57.179V44.82H58.349C58.613 44.82 58.781 44.943 58.853 45.189L59.015 46.152ZM69.1662 46.521C69.4542 45.939 69.8022 45.483 70.2102 45.153C70.6182 44.817 71.1072 44.649 71.6772 44.649C71.8752 44.649 72.0612 44.673 72.2352 44.721C72.4092 44.763 72.5652 44.829 72.7032 44.919L72.5682 46.377C72.5442 46.479 72.5052 46.551 72.4512 46.593C72.4032 46.629 72.3372 46.647 72.2532 46.647C72.1632 46.647 72.0342 46.632 71.8662 46.602C71.6982 46.566 71.5212 46.548 71.3352 46.548C71.0652 46.548 70.8252 46.587 70.6152 46.665C70.4112 46.743 70.2252 46.857 70.0572 47.007C69.8952 47.157 69.7512 47.34 69.6252 47.556C69.4992 47.772 69.3822 48.018 69.2742 48.294V54H67.3392V44.82H68.4642C68.6682 44.82 68.8092 44.859 68.8872 44.937C68.9652 45.009 69.0192 45.138 69.0492 45.324L69.1662 46.521ZM77.6363 44.676C78.3143 44.676 78.9263 44.787 79.4723 45.009C80.0243 45.231 80.4923 45.546 80.8763 45.954C81.2663 46.362 81.5663 46.857 81.7763 47.439C81.9863 48.021 82.0913 48.675 82.0913 49.401C82.0913 50.127 81.9863 50.781 81.7763 51.363C81.5663 51.945 81.2663 52.443 80.8763 52.857C80.4923 53.265 80.0243 53.58 79.4723 53.802C78.9263 54.024 78.3143 54.135 77.6363 54.135C76.9523 54.135 76.3343 54.024 75.7823 53.802C75.2363 53.58 74.7683 53.265 74.3783 52.857C73.9883 52.443 73.6883 51.945 73.4783 51.363C73.2683 50.781 73.1633 50.127 73.1633 49.401C73.1633 48.675 73.2683 48.021 73.4783 47.439C73.6883 46.857 73.9883 46.362 74.3783 45.954C74.7683 45.546 75.2363 45.231 75.7823 45.009C76.3343 44.787 76.9523 44.676 77.6363 44.676ZM77.6363 52.623C78.4643 52.623 79.0793 52.347 79.4813 51.795C79.8893 51.237 80.0933 50.442 80.0933 49.41C80.0933 48.378 79.8893 47.583 79.4813 47.025C79.0793 46.461 78.4643 46.179 77.6363 46.179C76.7963 46.179 76.1723 46.461 75.7643 47.025C75.3563 47.583 75.1523 48.378 75.1523 49.41C75.1523 50.442 75.3563 51.237 75.7643 51.795C76.1723 52.347 76.7963 52.623 77.6363 52.623ZM83.9505 54V44.82H85.1205C85.3845 44.82 85.5525 44.943 85.6245 45.189L85.7505 45.99C85.9185 45.798 86.0925 45.624 86.2725 45.468C86.4525 45.306 86.6445 45.168 86.8485 45.054C87.0585 44.934 87.2805 44.841 87.5145 44.775C87.7545 44.709 88.0125 44.676 88.2885 44.676C88.5825 44.676 88.8525 44.718 89.0985 44.802C89.3445 44.886 89.5605 45.006 89.7465 45.162C89.9385 45.318 90.1035 45.507 90.2415 45.729C90.3795 45.951 90.4935 46.2 90.5835 46.476C90.7215 46.158 90.8955 45.885 91.1055 45.657C91.3155 45.429 91.5495 45.243 91.8075 45.099C92.0655 44.955 92.3385 44.85 92.6265 44.784C92.9205 44.712 93.2175 44.676 93.5175 44.676C94.0095 44.676 94.4475 44.754 94.8315 44.91C95.2215 45.066 95.5485 45.294 95.8125 45.594C96.0825 45.888 96.2865 46.251 96.4245 46.683C96.5625 47.115 96.6315 47.607 96.6315 48.159V54H94.6965V48.159C94.6965 47.511 94.5555 47.025 94.2735 46.701C93.9975 46.371 93.5865 46.206 93.0405 46.206C92.7945 46.206 92.5635 46.248 92.3475 46.332C92.1315 46.416 91.9425 46.539 91.7805 46.701C91.6185 46.863 91.4895 47.067 91.3935 47.313C91.3035 47.553 91.2585 47.835 91.2585 48.159V54H89.3235V48.159C89.3235 47.487 89.1885 46.995 88.9185 46.683C88.6485 46.365 88.2525 46.206 87.7305 46.206C87.3705 46.206 87.0375 46.299 86.7315 46.485C86.4255 46.665 86.1435 46.914 85.8855 47.232V54H83.9505ZM102.861 44.676C103.539 44.676 104.151 44.787 104.697 45.009C105.249 45.231 105.717 45.546 106.101 45.954C106.491 46.362 106.791 46.857 107.001 47.439C107.211 48.021 107.316 48.675 107.316 49.401C107.316 50.127 107.211 50.781 107.001 51.363C106.791 51.945 106.491 52.443 106.101 52.857C105.717 53.265 105.249 53.58 104.697 53.802C104.151 54.024 103.539 54.135 102.861 54.135C102.177 54.135 101.559 54.024 101.007 53.802C100.461 53.58 99.9929 53.265 99.6029 52.857C99.2129 52.443 98.9129 51.945 98.7029 51.363C98.4929 50.781 98.3879 50.127 98.3879 49.401C98.3879 48.675 98.4929 48.021 98.7029 47.439C98.9129 46.857 99.2129 46.362 99.6029 45.954C99.9929 45.546 100.461 45.231 101.007 45.009C101.559 44.787 102.177 44.676 102.861 44.676ZM102.861 52.623C103.689 52.623 104.304 52.347 104.706 51.795C105.114 51.237 105.318 50.442 105.318 49.41C105.318 48.378 105.114 47.583 104.706 47.025C104.304 46.461 103.689 46.179 102.861 46.179C102.021 46.179 101.397 46.461 100.989 47.025C100.581 47.583 100.377 48.378 100.377 49.41C100.377 50.442 100.581 51.237 100.989 51.795C101.397 52.347 102.021 52.623 102.861 52.623ZM117.909 54H115.974V46.341H111.501V51.552C111.501 51.882 111.582 52.134 111.744 52.308C111.906 52.482 112.122 52.569 112.392 52.569C112.542 52.569 112.671 52.551 112.779 52.515C112.887 52.473 112.98 52.431 113.058 52.389C113.136 52.341 113.202 52.299 113.256 52.263C113.316 52.221 113.373 52.2 113.427 52.2C113.535 52.2 113.622 52.26 113.688 52.38L114.264 53.325C113.964 53.589 113.61 53.793 113.202 53.937C112.794 54.075 112.374 54.144 111.942 54.144C111.18 54.144 110.592 53.931 110.178 53.505C109.77 53.073 109.566 52.467 109.566 51.687V46.341H108.558C108.45 46.341 108.357 46.308 108.279 46.242C108.201 46.17 108.162 46.065 108.162 45.927V45.144L109.647 44.928L110.07 42.273C110.1 42.171 110.151 42.09 110.223 42.03C110.295 41.964 110.391 41.931 110.511 41.931H111.501V44.946H117.909V54ZM118.305 42.003C118.305 42.177 118.269 42.342 118.197 42.498C118.131 42.648 118.038 42.783 117.918 42.903C117.798 43.017 117.657 43.11 117.495 43.182C117.339 43.248 117.174 43.281 117 43.281C116.826 43.281 116.661 43.248 116.505 43.182C116.355 43.11 116.22 43.017 116.1 42.903C115.986 42.783 115.893 42.648 115.821 42.498C115.755 42.342 115.722 42.177 115.722 42.003C115.722 41.823 115.755 41.655 115.821 41.499C115.893 41.337 115.986 41.199 116.1 41.085C116.22 40.965 116.355 40.872 116.505 40.806C116.661 40.734 116.826 40.698 117 40.698C117.174 40.698 117.339 40.734 117.495 40.806C117.657 40.872 117.798 40.965 117.918 41.085C118.038 41.199 118.131 41.337 118.197 41.499C118.269 41.655 118.305 41.823 118.305 42.003ZM124.324 44.676C125.002 44.676 125.614 44.787 126.16 45.009C126.712 45.231 127.18 45.546 127.564 45.954C127.954 46.362 128.254 46.857 128.464 47.439C128.674 48.021 128.779 48.675 128.779 49.401C128.779 50.127 128.674 50.781 128.464 51.363C128.254 51.945 127.954 52.443 127.564 52.857C127.18 53.265 126.712 53.58 126.16 53.802C125.614 54.024 125.002 54.135 124.324 54.135C123.64 54.135 123.022 54.024 122.47 53.802C121.924 53.58 121.456 53.265 121.066 52.857C120.676 52.443 120.376 51.945 120.166 51.363C119.956 50.781 119.851 50.127 119.851 49.401C119.851 48.675 119.956 48.021 120.166 47.439C120.376 46.857 120.676 46.362 121.066 45.954C121.456 45.546 121.924 45.231 122.47 45.009C123.022 44.787 123.64 44.676 124.324 44.676ZM124.324 52.623C125.152 52.623 125.767 52.347 126.169 51.795C126.577 51.237 126.781 50.442 126.781 49.41C126.781 48.378 126.577 47.583 126.169 47.025C125.767 46.461 125.152 46.179 124.324 46.179C123.484 46.179 122.86 46.461 122.452 47.025C122.044 47.583 121.84 48.378 121.84 49.41C121.84 50.442 122.044 51.237 122.452 51.795C122.86 52.347 123.484 52.623 124.324 52.623ZM132.447 46.035C132.645 45.831 132.849 45.648 133.059 45.486C133.275 45.318 133.503 45.174 133.743 45.054C133.983 44.934 134.238 44.841 134.508 44.775C134.778 44.709 135.072 44.676 135.39 44.676C135.894 44.676 136.335 44.76 136.713 44.928C137.097 45.096 137.418 45.333 137.676 45.639C137.94 45.945 138.138 46.314 138.27 46.746C138.402 47.172 138.468 47.643 138.468 48.159V54H136.542V48.159C136.542 47.541 136.398 47.061 136.11 46.719C135.828 46.377 135.396 46.206 134.814 46.206C134.382 46.206 133.98 46.305 133.608 46.503C133.242 46.701 132.897 46.971 132.573 47.313V54H130.638V44.82H131.808C132.072 44.82 132.24 44.943 132.312 45.189L132.447 46.035Z" fill="#085DA8"/>
</svg>
